<?xml version="1.0" encoding="UTF-8"?>
<svg version="1.1" xmlns="http://www.w3.org/2000/svg" width="3508" height="2481">
<path d="M0 0 C84.75386205 -1.71248753 168.84704954 17.33442875 343.13037109 107.06640625 C344.56755968 108.13193058 346.00505967 109.19703502 347.44287109 110.26171875 C354.79020209 115.71988135 362.03776619 121.27940524 369.13037109 127.06640625 C370.46648437 128.14148438 370.46648437 128.14148438 371.82958984 129.23828125 C377.20991149 133.59056375 382.44060993 138.06105541 387.54833984 142.73046875 C389.6577715 144.63885019 391.78813063 146.51326379 393.93505859 148.37890625 C398.06107153 151.98138697 402.07860186 155.68860303 406.06787109 159.44140625 C407.11382446 160.42475952 407.11382446 160.42475952 408.1809082 161.42797852 C415.11651927 167.96809913 421.91950565 174.53739739 428.12646484 181.78125 C430.18680422 184.13075981 432.30423034 186.41596088 434.43725586 188.69921875 C439.37702893 193.9904594 444.13210753 199.35948293 448.66552734 205.0078125 C450.5501145 207.34637311 452.45257625 209.66285986 454.37646484 211.96875 C470.33446206 231.11524457 484.8127051 251.26334795 498.44287109 272.12890625 C499.00031006 272.98000977 499.55774902 273.83111328 500.13208008 274.70800781 C500.64327393 275.49788086 501.15446777 276.28775391 501.68115234 277.1015625 C502.13143799 277.79644775 502.58172363 278.49133301 503.0456543 279.20727539 C504.13037109 281.06640625 504.13037109 281.06640625 505.13037109 284.06640625 C495.91616592 284.36873697 486.70368711 284.5991413 477.48558998 284.73996449 C473.2040963 284.80758654 468.92601404 284.8991354 464.64648438 285.04711914 C460.50940373 285.18926786 456.37558338 285.26627059 452.23624802 285.29981041 C450.66423571 285.32367957 449.09238588 285.37030204 447.52177811 285.44089699 C435.56542186 285.95651454 435.56542186 285.95651454 431.4953804 282.79731178 C428.08233153 279.27519025 425.62393798 275.2661377 423.13037109 271.06640625 C422.08966501 269.62655827 421.0352364 268.1961789 419.95068359 266.7890625 C419.50337891 266.1811084 419.05607422 265.5731543 418.59521484 264.94677734 C413.89038785 258.56336959 409.0214465 252.3826512 403.79521179 246.41746521 C401.33509076 243.60928592 398.8890916 240.79400742 396.50170898 237.92358398 C389.02110693 228.96324738 381.00567147 220.63214728 372.73022461 212.40551758 C370.55980548 210.24588071 368.40037292 208.07566722 366.24169922 205.90429688 C359.54637123 199.20298882 352.86561628 192.7064891 345.39208984 186.86889648 C343.04416202 184.99770142 340.87081476 183.00664908 338.69287109 180.94140625 C331.47904171 174.37922231 323.5370897 168.71830234 315.68798828 162.94775391 C313.32181657 161.20723088 310.96393986 159.45602462 308.60693359 157.703125 C242.51998441 108.89806469 164.88423245 77.73051889 83.69287109 66.25390625 C82.99815704 66.15435638 82.30344299 66.05480652 81.587677 65.95223999 C57.65517646 62.57502979 33.71480417 61.68647994 9.56787109 61.75390625 C8.19332897 61.75583122 6.81878673 61.75767158 5.44424438 61.75942993 C-14.80801174 61.79706454 -34.77533016 62.31259513 -54.86962891 65.06640625 C-56.23429842 65.24570106 -57.59904736 65.42439214 -58.96386719 65.60253906 C-77.81921508 68.09068455 -96.39532514 71.50967369 -114.86962891 76.06640625 C-115.91570312 76.32115723 -116.96177734 76.5759082 -118.03955078 76.83837891 C-192.29530734 95.14974745 -262.3474972 132.06367091 -320.86962891 181.06640625 C-321.77986816 181.82800049 -321.77986816 181.82800049 -322.70849609 182.60498047 C-335.6183121 193.44908658 -347.8085104 204.91652983 -359.74462891 216.81640625 C-360.24308319 217.3121817 -360.74153748 217.80795715 -361.25509644 218.3187561 C-367.01409296 224.05426347 -372.6040731 229.87153495 -377.86962891 236.06640625 C-378.81868746 237.14972031 -379.76915547 238.23180159 -380.72119141 239.3125 C-388.52171316 248.25618968 -395.7682037 257.56152436 -402.86962891 267.06640625 C-403.35850586 267.71786621 -403.84738281 268.36932617 -404.35107422 269.04052734 C-411.18831067 278.16849434 -417.70170056 287.47307878 -423.86962891 297.06640625 C-424.36188965 297.83162598 -424.85415039 298.5968457 -425.36132812 299.38525391 C-465.72044848 362.50847767 -492.19991077 433.25352302 -502.05712891 507.56640625 C-502.21213867 508.72664307 -502.36714844 509.88687988 -502.52685547 511.08227539 C-505.25337512 532.84542657 -506.2510382 554.58263335 -506.18212891 576.50390625 C-506.17939468 578.32717941 -506.17939468 578.32717941 -506.17660522 580.18728638 C-506.12612685 600.28902463 -505.42343972 620.12212834 -502.86962891 640.06640625 C-502.78241577 640.7531543 -502.69520264 641.43990234 -502.60534668 642.14746094 C-492.78930071 718.63063547 -466.24911844 792.52064943 -423.86962891 857.06640625 C-423.15162109 858.17113281 -422.43361328 859.27585937 -421.69384766 860.4140625 C-401.30537951 891.42578058 -377.29111017 919.69021752 -351.11962891 945.94140625 C-350.62385345 946.43986053 -350.128078 946.93831482 -349.61727905 947.45187378 C-343.88177169 953.2108703 -338.0645002 958.80085044 -331.86962891 964.06640625 C-330.78631485 965.0154648 -329.70423356 965.96593281 -328.62353516 966.91796875 C-320.38685099 974.10247964 -311.86482716 980.83395009 -303.11572266 987.38232422 C-300.84944692 989.08153835 -298.59392456 990.79439092 -296.33837891 992.5078125 C-223.83339239 1047.19689396 -134.80733803 1081.22301607 10.13037109 1093.06640625 C10.13037109 1113.19640625 10.13037109 1133.32640625 10.13037109 1154.06640625 C-6.12847124 1154.06640625 -6.12847124 1154.06640625 -12.53759766 1153.76953125 C-13.28796295 1153.73625732 -14.03832825 1153.7029834 -14.81143188 1153.66870117 C-89.00122112 1150.26087486 -162.22822846 1134.79732487 -229.69775391 1103.08251953 C-231.82037474 1102.08944985 -233.95237499 1101.12014169 -236.08837891 1100.15625 C-278.17346552 1081.01049933 -317.91366111 1055.03820314 -353.86962891 1026.06640625 C-355.26375 1024.94685547 -355.26375 1024.94685547 -356.68603516 1023.8046875 C-367.44487983 1015.08172319 -377.92752148 1006.05302388 -388.08056641 996.6328125 C-390.59940665 994.31505614 -393.16418205 992.06484121 -395.74462891 989.81640625 C-406.57363768 980.08071086 -416.07229464 968.87663114 -425.44042969 957.75732422 C-426.85515106 956.08353531 -428.2805797 954.41951093 -429.70947266 952.7578125 C-436.02824691 945.39142297 -442.04283841 937.82799261 -447.86962891 930.06640625 C-448.3783252 929.39432129 -448.88702148 928.72223633 -449.41113281 928.02978516 C-470.36535729 900.30159269 -488.73831992 870.84257364 -504.86962891 840.06640625 C-505.69479004 838.49995361 -505.69479004 838.49995361 -506.53662109 836.90185547 C-535.95229705 780.70016211 -554.32443114 719.30036055 -562.68212891 656.50390625 C-562.78158813 655.76499146 -562.88104736 655.02607666 -562.98352051 654.26477051 C-566.26558253 629.52403048 -567.24907605 604.84864773 -567.18768692 579.92121887 C-567.18204467 577.59416637 -567.1792255 575.26712116 -567.17660522 572.94006348 C-567.14043853 550.84903656 -566.76759998 529.00085269 -563.86962891 507.06640625 C-563.700527 505.70293954 -563.53259031 504.33932789 -563.36572266 502.97558594 C-552.12095002 412.03383354 -518.80522308 320.20679471 -460.23486328 240.87158203 C-458.80186283 238.97680282 -457.38890244 237.06827194 -455.97900391 235.15625 C-448.8854937 225.56285515 -441.49955146 216.23829713 -433.86962891 207.06640625 C-433.37495117 206.47118164 -432.88027344 205.87595703 -432.37060547 205.26269531 C-421.36197341 192.07733975 -409.5478073 179.67218527 -397.43212891 167.50390625 C-396.69913574 166.76624023 -395.96614258 166.02857422 -395.2109375 165.26855469 C-391.15001863 161.21962581 -386.99305995 157.34453174 -382.64916992 153.60083008 C-380.4131088 151.67276805 -378.23618925 149.68347192 -376.05712891 147.69140625 C-371.79217582 143.8471238 -367.42102041 140.1711372 -362.95556641 136.5625 C-360.72023074 134.75442469 -358.49774685 132.93527862 -356.28369141 131.1015625 C-346.09425003 122.69207178 -335.58194705 114.79571779 -324.86962891 107.06640625 C-324.14630371 106.54159668 -323.42297852 106.01678711 -322.67773438 105.47607422 C-288.72228694 80.88549392 -251.69617239 60.80977183 -212.86962891 45.06640625 C-211.82049316 44.63908203 -210.77135742 44.21175781 -209.69042969 43.77148438 C-180.47426415 31.96529865 -150.54629129 22.25663441 -119.86962891 15.06640625 C-118.70592773 14.79103027 -117.54222656 14.5156543 -116.34326172 14.23193359 C-78.13597173 5.30182735 -39.19904595 0.90710741 0 0 Z " fill="#748759" transform="translate(1107.86962890625,659.93359375)"/>
<path d="M0 0 C164.34 0 328.68 0 498 0 C498 164.34 498 328.68 498 498 C477.87 498 457.74 498 437 498 C437 353.46 437 208.92 437 60 C292.79 60 148.58 60 0 60 C0 40.2 0 20.4 0 0 Z " fill="#748759" transform="translate(1117,1257)"/>
<path d="M0 0 C112.2 0 224.4 0 340 0 C340 112.2 340 224.4 340 340 C319.87 340 299.74 340 279 340 C279 247.6 279 155.2 279 60 C186.93 60 94.86 60 0 60 C0 40.2 0 20.4 0 0 Z " fill="#A6B091" transform="translate(1116,1416)"/>
<path d="M0 0 C0.61488281 0.46921875 1.22976563 0.9384375 1.86328125 1.421875 C15.75270779 12.2779785 24.52906007 31.03749696 28 48 C28.33 50.97 28.66 53.94 29 57 C13.82 57 -1.36 57 -17 57 C-18.98 52.05 -18.98 52.05 -21 47 C-26.18536008 35.68907718 -33.48654135 27.14755162 -45 22 C-60.39164514 16.77203615 -76.2439821 15.80641675 -91.421875 22.51171875 C-107.92970751 30.97483565 -117.06725736 43.7965501 -122.84765625 61.15234375 C-129.77958767 83.55841961 -127.38843116 110.11491478 -116.51953125 130.8203125 C-108.98499506 143.79753422 -98.17786122 152.36114848 -83.8125 156.75 C-65.05258403 161.08837955 -46.34221933 157.88504974 -30 148 C-18.590414 139.56998741 -15.89349 127.50295333 -13 114 C-30.82 114 -48.64 114 -67 114 C-67 101.13 -67 88.26 -67 75 C-34.66 75 -2.32 75 31 75 C31 115.59 31 156.18 31 198 C19.78 198 8.56 198 -3 198 C-4.98 191.4 -6.96 184.8 -9 178 C-10.69125 179.340625 -12.3825 180.68125 -14.125 182.0625 C-24.3176112 189.83664528 -35.58097556 194.83155658 -48 198 C-48.81984375 198.22558594 -49.6396875 198.45117188 -50.484375 198.68359375 C-76.10431024 204.59902466 -104.66481469 197.90503684 -127 185 C-130.84891881 182.53286695 -134.45232017 179.88107757 -138 177 C-138.78890625 176.36320312 -139.5778125 175.72640625 -140.390625 175.0703125 C-150.34398624 166.64042492 -156.95605795 156.41054576 -163 145 C-163.7115625 143.67742187 -163.7115625 143.67742187 -164.4375 142.328125 C-178.36529764 114.29843224 -178.86017708 76.12487859 -169.18212891 46.77587891 C-164.82146545 34.48329177 -159.25948058 23.15481402 -151 13 C-150.52175781 12.3709375 -150.04351563 11.741875 -149.55078125 11.09375 C-133.46816672 -9.18232563 -106.94193466 -19.35545043 -81.9375 -22.25 C-51.83957332 -25.28790366 -23.43447436 -19.84468397 0 0 Z " fill="#748759" transform="translate(1860,1282)"/>
<path d="M0 0 C15.51 0 31.02 0 47 0 C57 36 67 72 77 108 C78.7461495 105.38077575 79.43149862 103.93966933 80.2073822 101.01057434 C80.42456406 100.20183868 80.64174591 99.39310303 80.86550903 98.55986023 C81.09672455 97.67619278 81.32794006 96.79252533 81.56616211 95.88208008 C81.93976112 94.48155396 81.93976112 94.48155396 82.32090759 93.05273438 C82.86138725 91.02359526 83.3992639 88.99376145 83.93485832 86.96332741 C84.78353546 83.74605896 85.63889212 80.53063294 86.49598694 77.31559753 C88.00699035 71.64322347 89.5119994 65.96927899 91.01507568 60.2947998 C93.41635429 51.22958774 95.82248069 42.16568129 98.23651314 33.10385704 C99.07694971 29.94302497 99.91228342 26.7808743 100.74729919 23.61860657 C101.26612855 21.66731041 101.78516576 19.7160695 102.30444336 17.76489258 C102.53363464 16.89134628 102.76282593 16.01779999 102.9989624 15.11778259 C103.21896408 14.29494781 103.43896576 13.47211304 103.66563416 12.62434387 C103.85200408 11.92030332 104.038374 11.21626276 104.2303915 10.49088764 C105.32731564 6.94062179 106.69527376 3.47926998 108 0 C121.2 0 134.4 0 148 0 C148.70084717 2.69269043 149.40169434 5.38538086 150.1237793 8.15966797 C152.45737176 17.12456501 154.7925884 26.08903841 157.12857342 35.0533123 C158.54278109 40.48049201 159.95646627 45.90780663 161.36889648 51.33544922 C162.73572954 56.58778939 164.10401452 61.83974948 165.47324562 67.091465 C165.99155662 69.0804551 166.50937196 71.06957445 167.02664757 73.05883408 C170.2376264 85.40549637 173.54251393 97.71997756 177 110 C177.27038086 109.03487488 177.54076172 108.06974976 177.81933594 107.07537842 C180.40613732 97.84215033 182.99371179 88.60913918 185.58198547 79.3763237 C186.91163475 74.63314742 188.24103983 69.88990303 189.56982422 65.14648438 C195.65777333 43.41477634 201.77626932 21.69329204 208 0 C222.85 0 237.7 0 253 0 C251.08815097 7.01011311 249.13741212 13.92776155 246.91015625 20.83203125 C246.61372223 21.75742706 246.31728821 22.68282288 246.01187134 23.63626099 C245.0310784 26.6957607 244.04680883 29.7541298 243.0625 32.8125 C242.36091355 34.99872461 241.65950191 37.18500533 240.95825195 39.37133789 C236.94707514 51.8692515 232.91684638 64.36101263 228.8828125 76.8515625 C228.56120148 77.84742654 228.56120148 77.84742654 228.23309326 78.86340904 C227.58282237 80.87696276 226.93252925 82.89050929 226.28222656 84.90405273 C225.96051357 85.90018727 225.96051357 85.90018727 225.63230133 86.91644573 C224.55376398 90.25583726 223.47501267 93.59515942 222.39587402 96.93435669 C216.84565243 114.1100208 211.33394611 131.29650497 205.98120117 148.53491211 C205.5916626 149.78667236 205.20212402 151.03843262 204.80078125 152.328125 C204.47247314 153.3893457 204.14416504 154.45056641 203.8059082 155.54394531 C203 158 203 158 202 160 C186.49 160 170.98 160 155 160 C153.0451357 154.78702854 151.22598389 149.68903897 149.67163086 144.36572266 C149.45982681 143.64909958 149.24802277 142.9324765 149.02980042 142.19413757 C148.33841393 139.85167023 147.65141806 137.50794441 146.96484375 135.1640625 C146.48081438 133.51789385 145.9966455 131.87176621 145.51234436 130.22567749 C144.50090668 126.7851593 143.49176037 123.34397908 142.48413086 119.90234375 C141.19917172 115.5144628 139.90759412 111.12856201 138.61415768 106.7431736 C137.61335958 103.34664922 136.61658912 99.94895258 135.62094307 96.55091476 C135.14667542 94.93436921 134.67107997 93.31821254 134.19407463 91.70247269 C131.78105634 83.5221703 129.48411713 75.41156423 128 67 C127.34 67 126.68 67 126 67 C125.78682129 68.25538574 125.57364258 69.51077148 125.35400391 70.80419922 C123.62738657 79.40565664 120.8866519 87.74854839 118.3359375 96.1328125 C117.77788285 97.97927769 117.22024171 99.82586791 116.66299438 101.6725769 C115.20398495 106.50373495 113.73940785 111.33318722 112.27362061 116.16229248 C110.51137456 121.97233021 108.75612903 127.78448622 106.99969482 133.59628296 C104.33845693 142.39914644 101.66840265 151.1992914 99 160 C83.16 160 67.32 160 51 160 C38.51404047 121.49546799 26.13721594 82.96170953 13.99658203 44.34667969 C10.96537974 34.70734245 7.91950001 25.07264332 4.875 15.4375 C3.26625 10.343125 1.6575 5.24875 0 0 Z " fill="#748759" transform="translate(2204,1320)"/>
<path d="M0 0 C61.38 0 122.76 0 186 0 C186 61.71 186 123.42 186 187 C166.2 187 146.4 187 126 187 C126 145.09 126 103.18 126 60 C84.42 60 42.84 60 0 60 C0 40.2 0 20.4 0 0 Z " fill="#CACEBB" transform="translate(1116,1569)"/>
<path d="M0 0 C14.52 0 29.04 0 44 0 C44 24.75 44 49.5 44 75 C47.3 72.36 50.6 69.72 54 67 C71.38389416 56.07463826 91.56375707 54.65901499 111.23828125 59.02734375 C120.90378366 61.5265235 128.55311913 65.35974452 136 72 C136.61488281 72.52207031 137.22976562 73.04414062 137.86328125 73.58203125 C150.86823528 85.43355255 155.58483642 104.05530336 157 121 C157.34301627 128.59519347 157.23396505 136.20405193 157.1953125 143.8046875 C157.19157473 145.98186105 157.18873138 148.15903631 157.18673706 150.33621216 C157.1791607 156.02098367 157.15956482 161.70565031 157.1373291 167.39038086 C157.11310999 174.23551772 157.1040611 181.08068996 157.09242249 187.92585754 C157.0731361 198.2839776 157.0347718 208.64186829 157 219 C142.48 219 127.96 219 113 219 C112.96261719 212.28140625 112.92523437 205.5628125 112.88671875 198.640625 C112.85641697 194.36586053 112.82525459 190.09113658 112.79101562 185.81640625 C112.73683785 179.04217656 112.68572227 172.26802702 112.65356445 165.49365234 C112.62741674 160.02756053 112.58693405 154.56174026 112.53681374 149.09581757 C112.52022227 147.01803738 112.50866021 144.94021031 112.50238609 142.86237335 C112.78813638 121.05492702 112.78813638 121.05492702 102.5546875 102.5078125 C94.87401306 95.71182308 87.22139531 94.67774639 77.34765625 94.7890625 C68.8209017 95.32633758 61.43434961 98.34220983 55 104 C46.75321751 113.56122599 44.87965614 124.78952495 44.79467773 137.03466797 C44.78477814 137.92311905 44.77487854 138.81157013 44.76467896 139.72694397 C44.73322021 142.64866518 44.7083686 145.57040262 44.68359375 148.4921875 C44.66301072 150.52385875 44.6420139 152.55552584 44.62062073 154.58718872 C44.56553941 159.9234683 44.51606886 165.25978564 44.46777344 170.59613037 C44.40860307 177.00478222 44.34245207 183.41336537 44.27747345 189.82196045 C44.17963942 199.54793152 44.09066332 209.27394753 44 219 C29.48 219 14.96 219 0 219 C0 146.73 0 74.46 0 0 Z " fill="#748759" transform="translate(2589,1261)"/>
<path d="M0 0 C16.01656606 13.88240525 25.00655587 33.41853061 26.875 54.375 C28.35696152 78.72566188 23.04246384 100.96091299 7.1875 120 C-7.38310207 135.63129724 -28.23428495 144.36437746 -49.45239258 145.49951172 C-66.60118805 146.049777 -82.33667652 144.60613503 -98.125 137.375 C-99.04539062 136.95605469 -99.96578125 136.53710938 -100.9140625 136.10546875 C-118.45798609 127.33350695 -131.42291164 111.9681599 -137.79785156 93.41699219 C-145.10558377 69.8492663 -143.90167688 44.63667994 -133.125 22.375 C-123.09197339 3.91046276 -107.12332252 -8.76228556 -87.1171875 -14.91015625 C-57.54035924 -23.347751 -24.4893471 -19.34998981 0 0 Z M-87.125 30.375 C-96.35039855 42.4869926 -98.13749597 56.52505913 -97.125 71.375 C-95.48933069 82.45118585 -91.05320728 93.76907483 -82.16015625 100.96484375 C-72.22542462 108.10597773 -62.21258254 109.47157944 -50.125 108.375 C-40.37706233 106.52765543 -32.32720388 101.89205838 -26.27734375 93.94921875 C-18.26129006 81.28503564 -16.4519537 66.70428989 -18.62109375 52.015625 C-21.16607022 40.91550163 -25.89489259 30.95692255 -35.3125 24.1875 C-51.90281052 13.80834022 -73.52638089 16.29158164 -87.125 30.375 Z " fill="#748759" transform="translate(2173.125,1336.625)"/>
<path d="M0 0 C14.52 0 29.04 0 44 0 C44 14.85 44 29.7 44 45 C55.88 45 67.76 45 80 45 C80 57.54 80 70.08 80 83 C68.12 83 56.24 83 44 83 C44.09081818 96.18375787 44.09081818 96.18375787 44.20898438 109.3671875 C44.26326404 114.74606672 44.31437579 120.12484272 44.34643555 125.50390625 C44.37249097 129.84182052 44.4129091 134.17938724 44.46318626 138.51708603 C44.47983986 140.16998844 44.49136353 141.82295095 44.49761391 143.47592545 C44.50727161 145.79567947 44.5353494 148.11454738 44.56762695 150.43408203 C44.57873001 151.75312531 44.58983307 153.07216858 44.60127258 154.43118286 C45.03109122 158.27828251 45.97474514 160.72019098 48 164 C51.89621181 166.35382819 55.79137202 166.30349067 60.26953125 166.4140625 C61.51581299 166.44967285 62.76209473 166.4852832 64.04614258 166.52197266 C65.61904053 166.55597168 67.19193848 166.5899707 68.8125 166.625 C73.824375 166.74875 78.83625 166.8725 84 167 C84 179.54 84 192.08 84 205 C77.8472191 205.06939227 71.69583121 205.12896692 65.54296875 205.16479492 C63.45600753 205.17975234 61.36907702 205.20012565 59.28222656 205.22631836 C24.17300758 205.65550584 24.17300758 205.65550584 11.1875 193.8125 C-0.68892354 180.7903509 -0.44289851 163.01587307 -0.29296875 146.4765625 C-0.28735924 144.63569488 -0.28309556 142.79482271 -0.28010559 140.95394897 C-0.26876336 136.15685207 -0.23939034 131.36003659 -0.20599365 126.56304932 C-0.17506101 121.64884241 -0.16155116 116.73458912 -0.14648438 111.8203125 C-0.11450818 102.21339942 -0.06182981 92.60676736 0 83 C-8.58 83 -17.16 83 -26 83 C-26 70.46 -26 57.92 -26 45 C-17.42 45 -8.84 45 0 45 C0 30.15 0 15.3 0 0 Z " fill="#748759" transform="translate(2489,1275)"/>
<path d="M0 0 C12.87 0 25.74 0 39 0 C40.50926897 4.52780692 41.66114467 8.73096976 42.625 13.375 C43.01558594 15.24285156 43.01558594 15.24285156 43.4140625 17.1484375 C43.60742188 18.08945313 43.80078125 19.03046875 44 20 C44.65484375 19.27554687 45.3096875 18.55109375 45.984375 17.8046875 C55.7170336 7.36058781 65.78906667 2.32542545 80 0 C85.94 0 91.88 0 98 0 C98 13.53 98 27.06 98 41 C85.1875 41.25 85.1875 41.25 81.21948242 41.29785156 C71.57464482 41.57410379 61.83494264 43.15122019 54.5625 50.0390625 C47.36263065 59.07489853 44.71187847 69.69114586 44.68115234 80.98632812 C44.66608391 82.27555176 44.66608391 82.27555176 44.65071106 83.59082031 C44.6200595 86.40429067 44.60289445 89.21766667 44.5859375 92.03125 C44.56721132 93.99280601 44.54763684 95.95435408 44.5272522 97.91589355 C44.47607814 103.05813913 44.43637383 108.20041077 44.39910889 113.34277344 C44.35191044 119.52373882 44.29037604 125.70457631 44.23126221 131.88543701 C44.14322962 141.25690597 44.07333661 150.62835264 44 160 C29.48 160 14.96 160 0 160 C0 107.2 0 54.4 0 0 Z " fill="#748759" transform="translate(1925,1320)"/>
<path d="M0 0 C13.35473262 12.07655689 21.57371888 26.90293588 26.3671875 44.140625 C26.3671875 45.460625 26.3671875 46.780625 26.3671875 48.140625 C20.7571875 48.140625 15.1471875 48.140625 9.3671875 48.140625 C8.6659375 46.2225 7.9646875 44.304375 7.2421875 42.328125 C2.92392782 31.20679699 -2.19339773 22.62509003 -10.6328125 14.140625 C-11.15101563 13.58761719 -11.66921875 13.03460937 -12.203125 12.46484375 C-25.86588921 -0.80449007 -46.76309303 -4.50969799 -65.01513672 -4.26000977 C-87.51482577 -3.5091882 -106.42914936 5.01161129 -122.03125 21.20703125 C-141.79976116 43.4985506 -145.96082442 73.41939234 -144.6328125 102.140625 C-142.88442692 123.55150348 -135.79827976 143.81382871 -121.6328125 160.140625 C-121.00375 160.96691406 -120.3746875 161.79320312 -119.7265625 162.64453125 C-108.51043508 176.01599659 -89.50066621 183.17040438 -72.6328125 185.140625 C-50.05181019 186.39030013 -29.14895313 182.98678039 -11.2265625 168.1484375 C-0.43461709 158.05870771 4.62683009 145.76915255 9.3671875 132.140625 C14.9771875 132.140625 20.5871875 132.140625 26.3671875 132.140625 C23.1778663 152.87121283 11.88791309 172.53397861 -4.8203125 185.328125 C-27.91850913 201.27457874 -55.70467255 205.49189797 -83.04492188 200.61914062 C-103.20041428 196.57378539 -119.24439342 187.68626685 -133.6328125 173.140625 C-134.37144531 172.42390625 -135.11007812 171.7071875 -135.87109375 170.96875 C-157.48450518 148.61900993 -163.17556423 115.05845269 -162.84765625 85.20703125 C-162.20442126 59.99301879 -154.91131471 33.79242899 -138.6328125 14.140625 C-137.93414063 13.29113281 -137.23546875 12.44164062 -136.515625 11.56640625 C-120.83457087 -6.65375095 -99.29684904 -17.75656237 -75.44921875 -20.578125 C-47.95449834 -22.604348 -21.71506465 -18.17682728 0 0 Z " fill="#748759" transform="translate(1852.6328125,1554.859375)"/>
<path d="M0 0 C1.24446502 1.02334107 2.47430573 2.0647737 3.6875 3.125 C4.57695312 3.84042969 4.57695312 3.84042969 5.484375 4.5703125 C15.47233284 13.36501874 19.86030375 27.43534437 20.86101532 40.36729622 C21.09256584 45.4211037 21.10698421 50.47553196 21.09819031 55.53387451 C21.09364775 58.37648297 21.10788635 61.21848987 21.12658691 64.06103516 C21.16923394 71.10704649 21.18063915 78.15303985 21.19281006 85.19915771 C21.20434974 91.18658538 21.22790548 97.1737314 21.26750183 103.16104126 C21.28102763 105.95408114 21.27691277 108.74673542 21.27209473 111.53979492 C21.28143436 113.25309743 21.29160294 114.96639569 21.30273438 116.6796875 C21.29658615 117.44963547 21.29043793 118.21958344 21.28410339 119.01286316 C21.33854937 123.79224395 22.16984507 127.05912647 24.6875 131.125 C29.17103166 135.18820057 34.92248539 134.77770996 40.6875 135.125 C40.6875 140.075 40.6875 145.025 40.6875 150.125 C19.35577697 150.85428968 19.35577697 150.85428968 11.75390625 144.51171875 C6.79279103 139.14610013 5.50388919 133.45935672 5.0625 126.25 C4.95035156 124.52136719 4.95035156 124.52136719 4.8359375 122.7578125 C4.78695312 121.88898438 4.73796875 121.02015625 4.6875 120.125 C4.26339844 120.83785156 3.83929687 121.55070312 3.40234375 122.28515625 C-5.44249597 136.72848793 -17.32195482 145.8419864 -33.8984375 150.03125 C-51.61923555 153.97068223 -71.95952894 153.9066299 -88.3125 145.125 C-98.4720047 138.54231266 -106.42804551 129.78357629 -109.5625 117.9375 C-112.18300494 104.1975552 -109.97133094 90.83137766 -102.3125 79.125 C-101.755625 78.25875 -101.19875 77.3925 -100.625 76.5 C-88.57434269 64.12364925 -70.95599745 59.49423633 -54.1178894 59.0385437 C-50.36854403 59.00969883 -46.62052063 59.01256821 -42.87109375 59.02734375 C-41.4939021 59.02921272 -40.11670977 59.03063436 -38.73951721 59.03163147 C-35.14421702 59.03541897 -31.54895831 59.04521632 -27.95367432 59.05633545 C-24.27315837 59.06663131 -20.59263562 59.07114647 -16.91210938 59.07617188 C-9.71222083 59.08684261 -2.51236627 59.10387282 4.6875 59.125 C4.55306547 55.75356416 4.40829297 52.38264691 4.26171875 49.01171875 C4.22397339 48.06196167 4.18622803 47.11220459 4.14733887 46.13366699 C3.63314105 34.58302812 1.32422579 23.89535114 -7.05859375 15.34375 C-20.28053298 4.56828185 -36.11790818 4.26174224 -52.3125 5.125 C-56.25067936 5.67704059 -59.65611564 6.58091877 -63.3125 8.125 C-64.17875 8.48851562 -65.045 8.85203125 -65.9375 9.2265625 C-76.23314949 13.97604366 -81.61751166 19.77567587 -86.3125 30.125 C-86.9725 32.105 -87.6325 34.085 -88.3125 36.125 C-93.5925 36.125 -98.8725 36.125 -104.3125 36.125 C-103.55587257 23.01012463 -97.03317414 12.44596482 -87.75 3.5 C-65.24959084 -15.21407339 -23.87749764 -17.15337474 0 0 Z M-88.25 85.9375 C-94.48825028 93.73531285 -95.3683835 102.36104362 -94.3125 112.125 C-92.22405231 120.60858129 -87.73690956 127.02641447 -80.5 131.875 C-66.52228044 140.01528113 -48.87282727 139.92477338 -33.55078125 136.08984375 C-20.67436926 132.25332534 -9.64236799 126.19849845 -2.51953125 114.375 C3.04143396 104.00892893 5.02534451 94.82625208 4.8125 83.0625 C4.80347656 82.10150391 4.79445313 81.14050781 4.78515625 80.15039062 C4.76185208 77.80832195 4.72914058 75.46680208 4.6875 73.125 C-3.69327994 73.05503457 -12.07393485 73.00195526 -20.45493603 72.96956348 C-24.34791171 72.9540055 -28.24068543 72.9329514 -32.13354492 72.89868164 C-35.90074417 72.86573123 -39.66775099 72.84807312 -43.43508339 72.84036827 C-44.86177913 72.83488796 -46.28846611 72.82418944 -47.71507835 72.80780983 C-62.99982617 72.6395345 -77.23652738 74.39519676 -88.25 85.9375 Z " fill="#748759" transform="translate(2188.3125,1604.875)"/>
<path d="M0 0 C14.34500851 13.45979438 20.96999774 32.42470322 22.75 51.6875 C22.75 55.6475 22.75 59.6075 22.75 63.6875 C-20.15 63.6875 -63.05 63.6875 -107.25 63.6875 C-105.33620066 80.91169409 -103.59101685 94.89174882 -93.25 108.6875 C-92.77820312 109.34105469 -92.30640625 109.99460937 -91.8203125 110.66796875 C-84.11380393 120.52968735 -71.55755428 126.9520463 -59.25 128.6875 C-48.80007774 129.30141 -38.07233284 129.71756792 -28.25 125.6875 C-27.26902344 125.29691406 -26.28804687 124.90632813 -25.27734375 124.50390625 C-11.61729397 118.40782841 -3.38844658 107.65467732 2.125 94.0625 C2.66125 92.61875 3.1975 91.175 3.75 89.6875 C9.03 89.6875 14.31 89.6875 19.75 89.6875 C16.87699041 103.09487808 11.8583655 113.41369403 2.75 123.6875 C2.21890625 124.31269531 1.6878125 124.93789062 1.140625 125.58203125 C-9.4869765 137.23556458 -25.68299799 143.83520972 -41.24755859 144.81298828 C-62.55149099 145.76675263 -81.88575364 141.07714243 -98.25 126.6875 C-115.33221325 110.36504085 -122.91650123 88.8236633 -123.53125 65.52197266 C-123.82627066 41.12284214 -117.47720188 18.97469965 -100.484375 0.8984375 C-90.62705341 -8.85548561 -77.8179656 -14.82570279 -64.25 -17.3125 C-63.55648437 -17.44269531 -62.86296875 -17.57289062 -62.1484375 -17.70703125 C-39.52262897 -21.19866837 -17.26166825 -14.71784345 0 0 Z M-95.0625 18.0625 C-102.34544768 28.01871789 -103.90293687 37.16982999 -106.25 49.6875 C-69.29 49.6875 -32.33 49.6875 5.75 49.6875 C4.18388241 32.46020651 -1.04477687 18.05906068 -14.52734375 6.69140625 C-40.76070812 -12.61665102 -74.99492213 -6.22754003 -95.0625 18.0625 Z " fill="#748759" transform="translate(2558.25,1612.3125)"/>
<path d="M0 0 C5.28 0 10.56 0 16 0 C16.33 31.02 16.66 62.04 17 94 C18.98 90.37 20.96 86.74 23 83 C25.73457697 79.38628661 28.80019955 76.2054538 32 73 C32.56460937 72.42378906 33.12921875 71.84757812 33.7109375 71.25390625 C44.85520681 60.78916556 60.15968323 57.50411349 75.02270508 57.64404297 C92.36981978 58.2206667 107.75741523 64.65851308 119.796875 77.203125 C131.64933323 92.24986275 135.18875437 111.41648219 135.11352539 130.10961914 C135.11367142 131.07653687 135.11381744 132.04345459 135.1139679 133.03967285 C135.11327662 136.20485758 135.10552129 139.36998192 135.09765625 142.53515625 C135.09578928 144.74189726 135.09436669 146.94863868 135.09336853 149.15538025 C135.08956534 154.94047201 135.07975397 160.72553834 135.06866455 166.51062012 C135.05840302 172.4230922 135.05386078 178.33556843 135.04882812 184.24804688 C135.0381296 195.83204237 135.02107977 207.41601906 135 219 C129.72 219 124.44 219 119 219 C118.99413376 217.79302963 118.98826752 216.58605927 118.98222351 215.34251404 C118.9247633 203.91261437 118.85188189 192.48290072 118.76428509 181.05319118 C118.71974666 175.17846004 118.68045488 169.30379561 118.65356445 163.42895508 C118.62736566 157.74888889 118.58684838 152.06908177 118.53681374 146.38917732 C118.52025636 144.23293365 118.50867337 142.07664529 118.50238609 139.92034721 C118.44077948 120.71633942 117.81414408 100.33373615 103.72265625 85.453125 C91.59556167 75.22346699 77.43461716 72.92208806 62 74 C48.91608821 76.06931108 37.19586074 82.7298139 29.21484375 93.3828125 C27.65337675 95.86678302 26.29950054 98.36987315 25 101 C24.54882812 101.89203125 24.09765625 102.7840625 23.6328125 103.703125 C16.70279004 118.71133933 16.54139513 134.91438715 16.48828125 151.12890625 C16.47138861 153.10002221 16.45323242 155.07112769 16.43388367 157.04222107 C16.38687459 162.16955285 16.3567504 167.29684221 16.33044434 172.42431641 C16.30038771 177.68074933 16.25394534 182.93703655 16.20898438 188.19335938 C16.12351149 198.46217907 16.05743971 208.73098521 16 219 C10.72 219 5.44 219 0 219 C0 146.73 0 74.46 0 0 Z " fill="#748759" transform="translate(1913,1536)"/>
<path d="M0 0 C1.38157505 1.17689727 2.73747672 2.38477821 4.0625 3.625 C4.68640625 4.20765625 5.3103125 4.7903125 5.953125 5.390625 C13.74649385 13.45506755 17.73081054 23.51340314 18.0625 34.625 C12.7825 34.625 7.5025 34.625 2.0625 34.625 C1.505625 32.975 0.94875 31.325 0.375 29.625 C-2.95845487 20.57705107 -6.69346649 14.79681878 -14.9375 9.625 C-15.54335937 9.24472656 -16.14921875 8.86445312 -16.7734375 8.47265625 C-30.68583693 0.69462703 -48.3328948 0.76124082 -63.38745117 4.78833008 C-72.88955381 7.6168907 -79.91363313 11.96497774 -84.9375 20.625 C-87.91823495 26.72195786 -88.11994807 33.99645763 -86.02734375 40.41796875 C-83.12125487 46.74408506 -80.17285462 49.93059139 -73.61181641 52.55541992 C-65.28826338 55.53337605 -57.00835594 56.93092716 -48.30325317 58.20431519 C1.79429221 65.59406358 1.79429221 65.59406358 14.48046875 81.390625 C20.44801223 90.00068774 22.21023422 100.33407968 21.0625 110.625 C19.38601387 118.78958215 16.83708256 125.55195587 11.0625 131.625 C10.12470703 132.62273437 10.12470703 132.62273437 9.16796875 133.640625 C-5.49054609 147.89120344 -25.45410975 151.10722616 -45.125 150.84375 C-63.52542041 150.24922915 -81.06066921 144.79742464 -94.640625 132.08203125 C-103.41188118 122.69917387 -106.14737236 112.10901664 -106.9375 99.625 C-101.6575 99.625 -96.3775 99.625 -90.9375 99.625 C-90.380625 102.3165625 -90.380625 102.3165625 -89.8125 105.0625 C-87.35813867 114.765789 -82.15484027 121.90858938 -73.9375 127.625 C-58.62139083 136.55737429 -39.42858263 138.10889447 -22.375 133.9375 C-16.35356365 132.33642868 -11.17271813 129.97098724 -5.9375 126.625 C-5.24140625 126.32851562 -4.5453125 126.03203125 -3.828125 125.7265625 C-1.44538334 124.33827087 -0.98199398 123.14380185 0.0625 120.625 C0.41570313 119.97402344 0.76890625 119.32304688 1.1328125 118.65234375 C4.62470298 111.73322742 5.24037154 105.46193992 3.40234375 97.9140625 C1.31864392 91.90651234 -1.38593209 87.81236572 -6.9375 84.625 C-19.77076455 78.5806033 -34.17202832 76.8274617 -48.05859375 74.6640625 C-87.61821169 68.46651366 -87.61821169 68.46651366 -98.9375 53.625 C-104.48891279 43.79155234 -105.45747059 32.95328996 -102.8125 22 C-99.08966297 10.02142715 -91.8882683 1.65049454 -80.86767578 -4.26831055 C-56.75030166 -16.54879656 -22.36171013 -16.51674374 0 0 Z " fill="#748759" transform="translate(2803.9375,1606.375)"/>
<path d="M0 0 C5.28 0 10.56 0 16 0 C16 14.52 16 29.04 16 44 C29.86 44 43.72 44 58 44 C58 48.95 58 53.9 58 59 C44.14 59 30.28 59 16 59 C16.06294528 73.72571799 16.13818414 88.45123517 16.23571491 103.17676544 C16.28061217 110.01463781 16.32004064 116.8524588 16.34643555 123.69042969 C16.37193019 130.29114631 16.41287571 136.89165143 16.46318626 143.49223328 C16.47985327 146.0087346 16.49136856 148.52527557 16.49761391 151.04182434 C16.5072564 154.5704442 16.53531918 158.09847794 16.56762695 161.62695312 C16.56619186 162.66417511 16.56475677 163.70139709 16.5632782 164.77005005 C16.65385727 171.77912408 17.43058127 177.63317545 21.8125 183.375 C26.55918719 186.90111048 31.60084138 187.27109524 37.3671875 187.4140625 C38.04677521 187.43342865 38.72636292 187.4527948 39.42654419 187.4727478 C41.57590579 187.53205099 43.72532241 187.57872891 45.875 187.625 C47.3411679 187.66322532 48.80731443 187.70227964 50.2734375 187.7421875 C53.84884082 187.83925727 57.42404424 187.91921146 61 188 C61 192.95 61 197.9 61 203 C56.51941347 203.06952634 52.04075834 203.12905226 47.56005859 203.16479492 C46.04143879 203.17972112 44.52286083 203.20006959 43.00439453 203.22631836 C30.15946034 203.44252022 17.86718692 203.34157406 8 194 C0.65823239 186.65823239 -0.11052364 175.82058891 -0.12442017 165.95542908 C-0.12082489 164.9016658 -0.11722961 163.84790253 -0.11352539 162.76220703 C-0.11367142 161.63967026 -0.11381744 160.51713348 -0.1139679 159.36058044 C-0.11327265 155.65963797 -0.10549837 151.95874616 -0.09765625 148.2578125 C-0.09579069 145.68805977 -0.09436744 143.11830668 -0.09336853 140.54855347 C-0.08994381 134.48198853 -0.08206668 128.41544442 -0.07201904 122.34888732 C-0.06082505 115.4395714 -0.05533918 108.5302546 -0.05032361 101.62093186 C-0.03988315 87.41394327 -0.02155084 73.20697599 0 59 C-9.9 59 -19.8 59 -30 59 C-30 54.05 -30 49.1 -30 44 C-20.1 44 -10.2 44 0 44 C0 29.48 0 14.96 0 0 Z " fill="#748759" transform="translate(2362,1552)"/>
<path d="M0 0 C4.62 0 9.24 0 14 0 C14.99 9.24 15.98 18.48 17 28 C18.98 24.7 20.96 21.4 23 18 C31.50356431 6.87995436 42.28077448 1.87333273 56 0 C61.36540257 -0.38307919 66.61632194 -0.19227422 72 0 C72 5.28 72 10.56 72 16 C70.16888672 16.03867188 70.16888672 16.03867188 68.30078125 16.078125 C54.96814114 16.48411944 42.15131454 17.36090775 32 27 C31.45859375 27.51304688 30.9171875 28.02609375 30.359375 28.5546875 C18.98445284 40.56154978 16.90171196 58.72582251 16.79467773 74.53710938 C16.77982834 75.91411514 16.77982834 75.91411514 16.76467896 77.31893921 C16.73330933 80.32718402 16.70840444 83.33544457 16.68359375 86.34375 C16.66300299 88.43982331 16.64200598 90.53589266 16.62062073 92.63195801 C16.56561916 98.12932112 16.51611386 103.62672033 16.46777344 109.12414551 C16.41739769 114.74165024 16.3617958 120.35910302 16.30664062 125.9765625 C16.19932738 136.98433054 16.09782361 147.99214383 16 159 C10.72 159 5.44 159 0 159 C0 106.53 0 54.06 0 0 Z " fill="#748759" transform="translate(2613,1596)"/>
<path d="M0 0 C4.62 0 9.24 0 14 0 C14.99 9.24 15.98 18.48 17 28 C18.98 24.7 20.96 21.4 23 18 C31.50356431 6.87995436 42.28077448 1.87333273 56 0 C61.36540257 -0.38307919 66.61632194 -0.19227422 72 0 C72 5.28 72 10.56 72 16 C70.16888672 16.03867188 70.16888672 16.03867188 68.30078125 16.078125 C54.96814114 16.48411944 42.15131454 17.36090775 32 27 C31.45859375 27.51304688 30.9171875 28.02609375 30.359375 28.5546875 C18.98445284 40.56154978 16.90171196 58.72582251 16.79467773 74.53710938 C16.77982834 75.91411514 16.77982834 75.91411514 16.76467896 77.31893921 C16.73330933 80.32718402 16.70840444 83.33544457 16.68359375 86.34375 C16.66300299 88.43982331 16.64200598 90.53589266 16.62062073 92.63195801 C16.56561916 98.12932112 16.51611386 103.62672033 16.46777344 109.12414551 C16.41739769 114.74165024 16.3617958 120.35910302 16.30664062 125.9765625 C16.19932738 136.98433054 16.09782361 147.99214383 16 159 C10.72 159 5.44 159 0 159 C0 106.53 0 54.06 0 0 Z " fill="#748759" transform="translate(2251,1596)"/>
<path d="" fill="#748759" transform="translate(0,0)"/>
</svg>
